# xmcd CD database file
#
# Track frame offsets:
#	150
#	9358
#	62146
#	70214
#	139087
#	152685
#	186664
#	193624
#	245219
#
# Disc length: 3380 seconds
#
# Revision: 0
# Processed by: cddbd v1.5.2PL0 Copyright (c) Steve Scherf et al.
# Submitted via: CDex 1.70beta2
#
DISCID=830d3209
DTITLE=QuartEthno Sabâa - Tawada - cd 1
DYEAR=2001
DGENRE=Jazz
TTITLE0=Taqsim Oud
TTITLE1=Lesterbouka
TTITLE2=Chanson tunisienne
TTITLE3=Hijaz
TTITLE4=Taqsim Oud-Trompette
TTITLE5=Tawada
TTITLE6=Taqsim Quartet
TTITLE7=Ziriab, j'ai lu tes rimes
TTITLE8=Lesterbouka, la coda
EXTD=YEAR: 2001
EXTT0=
EXTT1=
EXTT2=
EXTT3=
EXTT4=
EXTT5=
EXTT6=
EXTT7=
EXTT8=
PLAYORDER=
